<svg xmlns="http://www.w3.org/2000/svg" viewBox="0 0 71.2 68.2"><defs><style>.a{fill:#9d5025;}.b{fill:#f58435;}</style></defs><title>Compute_AmazonEC2_AutoScaling</title><polygon class="a" points="44.6 53.7 44.6 43.2 40.2 38.8 37.2 35.8 40.2 32.9 44.6 28.4 44.6 17.9 44.6 17.7 49.9 17.7 49.9 14.3 35.6 4.5 21.3 14.3 21.3 17.7 26.6 17.7 26.6 17.9 26.6 28.4 31 32.9 34 35.8 31 38.8 26.6 43.2 26.6 53.7 21.3 50.5 21.3 53.9 35.6 68.2 49.9 53.9 49.9 50.5 44.6 53.7"/><polygon class="a" points="27.3 35.8 27.3 32.4 13 28.4 0 28.4 0 43.2 13 43.2 13 50.1 27.3 35.8"/><polygon class="a" points="71.2 28.4 58.2 28.4 43.9 32.4 43.9 35.8 58.2 50.1 58.2 43.2 71.2 43.2 71.2 28.4"/><polygon class="b" points="44.6 50.3 44.6 39.8 40.2 35.3 37.2 32.4 40.2 29.4 44.6 25 44.6 14.5 44.6 14.3 49.9 14.3 35.6 0 21.3 14.3 26.6 14.3 26.6 14.5 26.6 25 31 29.4 34 32.4 31 35.3 26.6 39.8 26.6 50.3 26.6 50.5 21.3 50.5 35.6 64.8 49.9 50.5 44.6 50.5 44.6 50.3"/><polygon class="b" points="27.3 32.4 13 18.1 13 25 0 25 0 39.8 13 39.8 13 46.7 27.3 32.4"/><polygon class="b" points="71.2 25 58.2 25 58.2 18.1 43.9 32.4 58.2 46.7 58.2 39.8 71.2 39.8 71.2 25"/></svg>